<svg width="193" height="141" viewBox="0 0 193 141" fill="none" xmlns="http://www.w3.org/2000/svg">
<g clip-path="url(#clip0_4001_1202)">
<path d="M190.138 68.3793C190.034 68.3793 189.827 68.3793 189.724 68.3793L176.586 70.4483C176.483 70.4483 176.379 70.4483 176.276 70.4483C174.827 70.4483 173.69 69.3104 173.69 67.8621C173.69 67.7586 173.69 67.5517 173.69 67.4483L183.517 20.069C183.621 19.7586 183.621 19.3448 183.621 19.0345C183.621 16.2414 181.345 14.069 178.655 14.069C178.345 14.069 178.034 14.069 177.827 14.1724L133.552 21.3104C133.241 21.3104 133.034 21.4138 132.724 21.4138C129.931 21.4138 127.759 19.1379 127.759 16.4483C127.759 16.138 127.759 15.8276 127.862 15.5172L129.828 6.00005C129.828 6.00005 129.931 5.27591 129.931 4.96557C129.931 2.17246 127.655 0 124.965 0C124.655 0 124.345 3.78823e-05 124.138 0.103486L32.1724 14.7931C27.8276 15.5173 24.3103 18.8276 23.3793 23.069L0.103423 135C0.103423 135 0 135.724 0 136.034C0 138.828 2.27585 141 4.9655 141C5.79309 141 6.51724 140.793 7.24138 140.483L63.4138 111.828C64.0344 111.517 64.7586 111.31 65.5861 111.31C68.3792 111.31 70.5517 113.586 70.5517 116.276C70.5517 116.586 70.5517 116.897 70.4482 117.207L66.8275 134.793C66.7241 135.207 66.7241 135.621 66.7241 136.034C66.7241 138.828 69 141 71.6896 141C72.5172 141 73.2413 140.793 73.9655 140.483L137.69 107.897C138 107.69 138.414 107.586 138.828 107.586C140.276 107.586 141.414 108.724 141.414 110.172C141.414 110.379 141.414 110.483 141.414 110.69L138.724 123.828C138.724 124.034 138.621 124.241 138.621 124.345C138.621 125.793 139.759 126.931 141.207 126.931C141.621 126.931 142.034 126.828 142.448 126.621L182.483 106.241C184.655 105.103 186.31 103.034 186.724 100.655L192.724 71.4828C192.724 71.2759 192.827 71.0689 192.827 70.862C192.724 69.5172 191.586 68.3793 190.138 68.3793Z" fill="url(#paint0_linear_4001_1202)"/>
</g>
<defs>
<linearGradient id="paint0_linear_4001_1202" x1="178.242" y1="10.759" x2="-16.5115" y2="101.898" gradientUnits="userSpaceOnUse">
<stop stop-color="#BFFFA2"/>
<stop offset="0.274038" stop-color="#7CD27F"/>
<stop offset="0.788462" stop-color="#ABCBE0"/>
<stop offset="0.894231" stop-color="#CBABCE"/>
<stop offset="0.971154" stop-color="#A390CB"/>
</linearGradient>
<clipPath id="clip0_4001_1202">
<rect width="193" height="141" fill="white"/>
</clipPath>
</defs>
</svg>
