<svg viewBox="0 0 90 90" xmlns:xlink="http://www.w3.org/1999/xlink" xmlns="http://www.w3.org/2000/svg" width="90" height="90" fill="none" id="svg1119647861_2102"><path d="M45 85c22.091 0 40-17.909 40-40S67.091 5 45 5 5 22.909 5 45s17.909 40 40 40Z" fill="#7D2AE7"></path><path d="M45 85c22.091 0 40-17.909 40-40S67.091 5 45 5 5 22.909 5 45s17.909 40 40 40Z" fill="url(&quot;#svg1119647861_2102_a&quot;)"></path><path d="M45 85c22.091 0 40-17.909 40-40S67.091 5 45 5 5 22.909 5 45s17.909 40 40 40Z" fill="url(&quot;#svg1119647861_2102_b&quot;)"></path><path d="M45 85c22.091 0 40-17.909 40-40S67.091 5 45 5 5 22.909 5 45s17.909 40 40 40Z" fill="url(&quot;#svg1119647861_2102_c&quot;)"></path><path d="M45 85c22.091 0 40-17.909 40-40S67.091 5 45 5 5 22.909 5 45s17.909 40 40 40Z" fill="url(&quot;#svg1119647861_2102_d&quot;)"></path><path d="M62.269 53.206c-.33 0-.621.278-.923.887-3.414 6.923-9.31 11.82-16.134 11.82-7.89 0-12.776-7.121-12.776-16.96 0-16.667 9.287-26.303 17.443-26.303 3.812 0 6.14 2.395 6.14 6.206 0 4.524-2.571 6.92-2.571 8.515 0 .716.446 1.15 1.329 1.15 3.549 0 7.714-4.079 7.714-9.84 0-5.586-4.861-9.692-13.018-9.692-13.48 0-25.46 12.497-25.46 29.789 0 13.384 7.644 22.229 19.436 22.229 12.517 0 19.755-12.454 19.755-16.496 0-.895-.458-1.305-.935-1.305Z" fill="#FFFFFF"></path><defs><radialGradient id="svg1119647861_2102_a" cx="0" cy="0" r="1" gradientUnits="userSpaceOnUse" gradientTransform="rotate(-49.416 92.712 15.727) scale(61.8733)"><stop stop-color="#6420FF"></stop><stop offset="1" stop-color="#6420FF" stop-opacity="0"></stop></radialGradient><radialGradient id="svg1119647861_2102_b" cx="0" cy="0" r="1" gradientUnits="userSpaceOnUse" gradientTransform="rotate(54.703 -.534 32.352) scale(69.7735)"><stop stop-color="#00C4CC"></stop><stop offset="1" stop-color="#00C4CC" stop-opacity="0"></stop></radialGradient><radialGradient id="svg1119647861_2102_c" cx="0" cy="0" r="1" gradientUnits="userSpaceOnUse" gradientTransform="matrix(43.07399 -43.36818 19.94558 19.81028 20.452 75.905)"><stop stop-color="#6420FF"></stop><stop offset="1" stop-color="#6420FF" stop-opacity="0"></stop></radialGradient><radialGradient id="svg1119647861_2102_d" cx="0" cy="0" r="1" gradientUnits="userSpaceOnUse" gradientTransform="rotate(66.52 6.829 36.642) scale(62.9836 105.512)"><stop stop-color="#00C4CC" stop-opacity=".726"></stop><stop offset="0" stop-color="#00C4CC"></stop><stop offset="1" stop-color="#00C4CC" stop-opacity="0"></stop></radialGradient><radialGradient id="svg1119647861_2102_a" cx="0" cy="0" r="1" gradientUnits="userSpaceOnUse" gradientTransform="rotate(-49.416 92.712 15.727) scale(61.8733)"><stop stop-color="#6420FF"></stop><stop offset="1" stop-color="#6420FF" stop-opacity="0"></stop></radialGradient><radialGradient id="svg1119647861_2102_b" cx="0" cy="0" r="1" gradientUnits="userSpaceOnUse" gradientTransform="rotate(54.703 -.534 32.352) scale(69.7735)"><stop stop-color="#00C4CC"></stop><stop offset="1" stop-color="#00C4CC" stop-opacity="0"></stop></radialGradient><radialGradient id="svg1119647861_2102_c" cx="0" cy="0" r="1" gradientUnits="userSpaceOnUse" gradientTransform="matrix(43.07399 -43.36818 19.94558 19.81028 20.452 75.905)"><stop stop-color="#6420FF"></stop><stop offset="1" stop-color="#6420FF" stop-opacity="0"></stop></radialGradient><radialGradient id="svg1119647861_2102_d" cx="0" cy="0" r="1" gradientUnits="userSpaceOnUse" gradientTransform="rotate(66.52 6.829 36.642) scale(62.9836 105.512)"><stop stop-color="#00C4CC" stop-opacity=".726"></stop><stop offset="0" stop-color="#00C4CC"></stop><stop offset="1" stop-color="#00C4CC" stop-opacity="0"></stop></radialGradient><radialGradient id="svg1119647861_2102_a" cx="0" cy="0" r="1" gradientUnits="userSpaceOnUse" gradientTransform="rotate(-49.416 92.712 15.727) scale(61.8733)"><stop stop-color="#6420FF"></stop><stop offset="1" stop-color="#6420FF" stop-opacity="0"></stop></radialGradient><radialGradient id="svg1119647861_2102_b" cx="0" cy="0" r="1" gradientUnits="userSpaceOnUse" gradientTransform="rotate(54.703 -.534 32.352) scale(69.7735)"><stop stop-color="#00C4CC"></stop><stop offset="1" stop-color="#00C4CC" stop-opacity="0"></stop></radialGradient><radialGradient id="svg1119647861_2102_c" cx="0" cy="0" r="1" gradientUnits="userSpaceOnUse" gradientTransform="matrix(43.07399 -43.36818 19.94558 19.81028 20.452 75.905)"><stop stop-color="#6420FF"></stop><stop offset="1" stop-color="#6420FF" stop-opacity="0"></stop></radialGradient><radialGradient id="svg1119647861_2102_d" cx="0" cy="0" r="1" gradientUnits="userSpaceOnUse" gradientTransform="rotate(66.52 6.829 36.642) scale(62.9836 105.512)"><stop stop-color="#00C4CC" stop-opacity=".726"></stop><stop offset="0" stop-color="#00C4CC"></stop><stop offset="1" stop-color="#00C4CC" stop-opacity="0"></stop></radialGradient><radialGradient id="svg1119647861_2102_a" cx="0" cy="0" r="1" gradientUnits="userSpaceOnUse" gradientTransform="rotate(-49.416 92.712 15.727) scale(61.8733)"><stop stop-color="#6420FF"></stop><stop offset="1" stop-color="#6420FF" stop-opacity="0"></stop></radialGradient><radialGradient id="svg1119647861_2102_b" cx="0" cy="0" r="1" gradientUnits="userSpaceOnUse" gradientTransform="rotate(54.703 -.534 32.352) scale(69.7735)"><stop stop-color="#00C4CC"></stop><stop offset="1" stop-color="#00C4CC" stop-opacity="0"></stop></radialGradient><radialGradient id="svg1119647861_2102_c" cx="0" cy="0" r="1" gradientUnits="userSpaceOnUse" gradientTransform="matrix(43.07399 -43.36818 19.94558 19.81028 20.452 75.905)"><stop stop-color="#6420FF"></stop><stop offset="1" stop-color="#6420FF" stop-opacity="0"></stop></radialGradient><radialGradient id="svg1119647861_2102_d" cx="0" cy="0" r="1" gradientUnits="userSpaceOnUse" gradientTransform="rotate(66.52 6.829 36.642) scale(62.9836 105.512)"><stop stop-color="#00C4CC" stop-opacity=".726"></stop><stop offset="0" stop-color="#00C4CC"></stop><stop offset="1" stop-color="#00C4CC" stop-opacity="0"></stop></radialGradient></defs></svg>